<svg width="31" height="28" viewBox="0 0 31 28" fill="none" xmlns="http://www.w3.org/2000/svg">
<path d="M23.6322 20.8231L30.5934 26.9343C30.8536 26.543 31 26.0767 31 25.5688C31 25.061 30.8618 24.6613 30.6422 24.2866L25.1611 14.6036L23.5753 15.686C23.4777 15.7526 23.3557 15.7859 23.2419 15.7859C23.0467 15.7859 22.8597 15.6943 22.7458 15.5112C22.5669 15.2281 22.6401 14.8534 22.9166 14.6619L24.5674 13.5379L22.0708 9.12519L20.1598 11.8644C20.0459 12.0309 19.8589 12.1225 19.6718 12.1225C19.4848 12.1225 19.436 12.0809 19.3303 12.0059C19.0619 11.8145 18.9969 11.4315 19.192 11.1567L21.4203 7.96789L17.7038 1.39875C17.4192 0.707702 16.8256 0.191496 16.1018 0V9.68302C16.1018 10.0161 15.8334 10.2908 15.5081 10.2908C15.1828 10.2908 14.9145 10.0161 14.9145 9.68302V0C14.1907 0.191496 13.5971 0.707702 13.3124 1.39875L9.59601 7.96789L11.8242 11.1567C12.0194 11.4315 11.9544 11.8145 11.686 12.0059C11.5803 12.0809 11.4583 12.1225 11.3363 12.1225C11.1493 12.1225 10.9704 12.0309 10.8484 11.8644L8.9373 9.12519L6.44071 13.5379L8.09155 14.6619C8.36805 14.8451 8.44124 15.2281 8.2542 15.5112C8.14035 15.686 7.9533 15.7859 7.75813 15.7859C7.56296 15.7859 7.53043 15.7526 7.42471 15.686L5.83893 14.6036L0.357817 24.2783C0.357817 24.2783 0 24.8112 0 25.5605C0 26.3098 0.154512 26.5346 0.406611 26.926L7.36779 20.8231C7.61988 20.6066 7.99397 20.6316 8.2054 20.8897C8.41684 21.1478 8.39245 21.5308 8.14035 21.7472L1.31742 27.7336C1.63458 27.9001 2.00053 28 2.38274 28H8.57949L10.7996 23.4541C10.946 23.1543 11.3038 23.0294 11.6047 23.1793C11.8974 23.3292 12.0194 23.6955 11.873 23.9952L9.9213 28H14.9226V24.9444C14.9226 24.6114 15.191 24.3366 15.5163 24.3366C15.8416 24.3366 16.1099 24.6114 16.1099 24.9444V28H21.1112L19.1595 23.9952C19.0131 23.6955 19.1351 23.3292 19.4279 23.171C19.7206 23.0211 20.0784 23.146 20.2248 23.4457L22.4449 27.9917H28.6417C29.0239 27.9917 29.3817 27.8918 29.707 27.7252L22.8841 21.7389C22.632 21.5225 22.6076 21.1311 22.819 20.8814C23.0304 20.6316 23.4126 20.5983 23.6566 20.8148L23.6322 20.8231ZM15.4919 13.3464C16.4921 13.3464 17.281 14.154 17.281 15.1781C17.281 16.2022 16.4921 17.0098 15.4919 17.0098C14.4916 17.0098 13.7028 16.2022 13.7028 15.1781C13.7028 14.154 14.4916 13.3464 15.4919 13.3464ZM15.4919 21.8971C11.3119 21.8971 8.18101 17.6176 8.18101 17.6176C8.18101 17.6176 9.4171 15.9358 11.3607 14.6869C11.3444 14.8534 11.3119 15.0116 11.3119 15.1781C11.3119 17.526 13.1986 19.4576 15.4919 19.4576C17.7852 19.4576 19.6718 17.526 19.6718 15.1781C19.6718 12.8302 19.6393 14.8534 19.623 14.6869C21.5748 15.9441 22.8027 17.6176 22.8027 17.6176C22.8027 17.6176 19.6718 21.8971 15.4919 21.8971Z" fill="#0077B6"/>
</svg>
